# xmcd
#
# Track frame offsets:
#	182
#	14370
#	21890
#	42750
#	52540
#	69325
#	81885
#	95230
#	110110
#	122202
#
# Disc length: 1832 seconds
#
# Revision: 1
# Processed by: cddbd v1.5.2PL0 Copyright (c) Steve Scherf et al.
# Submitted via: audiograbber 1.83.01
#
DISCID=7d07260a
DTITLE=Margo's - Favourites
DYEAR=1900
DGENRE=
TTITLE0=West of the Old River Shannon
TTITLE1=Roads and the Miles to Dundee
TTITLE2=Red is the Rose
TTITLE3=Sing my Song
TTITLE4=The Hills Above Drumquin
TTITLE5=Boys From the Co.Armagh
TTITLE6=Glen of Aherlow
TTITLE7=Mommy Don't Have a Daddy
TTITLE8=Kingassalagh I Love You
TTITLE9=Jimmy Stowaway
EXTD=
EXTT0=
EXTT1=
EXTT2=
EXTT3=
EXTT4=
EXTT5=
EXTT6=
EXTT7=
EXTT8=
EXTT9=
PLAYORDER=
